<svg width="40" height="40" viewBox="0 0 40 40" fill="none" xmlns="http://www.w3.org/2000/svg">
<circle cx="20" cy="20" r="19.5" stroke="#999999"/>
<path d="M15.5 20H15.51M20 20H20.01M24.5 20H24.51M20 29C24.9706 29 29 24.9706 29 20C29 15.0294 24.9706 11 20 11C15.0294 11 11 15.0294 11 20C11 21.1971 11.2337 22.3397 11.6581 23.3845C11.7393 23.5845 11.7799 23.6845 11.798 23.7653C11.8157 23.8443 11.8222 23.9028 11.8222 23.9839C11.8222 24.0667 11.8072 24.1569 11.7771 24.3374L11.1841 27.8952C11.122 28.2678 11.091 28.4541 11.1488 28.5888C11.1993 28.7067 11.2933 28.8007 11.4112 28.8512C11.5459 28.909 11.7322 28.878 12.1048 28.8159L15.6627 28.2229C15.8431 28.1928 15.9333 28.1778 16.0161 28.1778C16.0972 28.1778 16.1557 28.1843 16.2347 28.202C16.3155 28.2201 16.4155 28.2607 16.6155 28.3419C17.6603 28.7663 18.8029 29 20 29ZM16 20C16 20.2761 15.7761 20.5 15.5 20.5C15.2239 20.5 15 20.2761 15 20C15 19.7239 15.2239 19.5 15.5 19.5C15.7761 19.5 16 19.7239 16 20ZM20.5 20C20.5 20.2761 20.2761 20.5 20 20.5C19.7239 20.5 19.5 20.2761 19.5 20C19.5 19.7239 19.7239 19.5 20 19.5C20.2761 19.5 20.5 19.7239 20.5 20ZM25 20C25 20.2761 24.7761 20.5 24.5 20.5C24.2239 20.5 24 20.2761 24 20C24 19.7239 24.2239 19.5 24.5 19.5C24.7761 19.5 25 19.7239 25 20Z" stroke="#666666" stroke-width="2" stroke-linecap="round" stroke-linejoin="round"/>
</svg>
