<svg width="48" height="48" viewBox="0 0 48 48" fill="none" xmlns="http://www.w3.org/2000/svg">
<path opacity="0.4" d="M23 42.1859C33.5855 42.1859 42.1667 33.6047 42.1667 23.0192C42.1667 12.4337 33.5855 3.85254 23 3.85254C12.4146 3.85254 3.83337 12.4337 3.83337 23.0192C3.83337 33.6047 12.4146 42.1859 23 42.1859Z" fill="#E1E1E1"/>
<path d="M23 13.3017C19.0325 13.3017 15.8125 16.5217 15.8125 20.4892C15.8125 24.38 18.86 27.5425 22.9042 27.6575C22.9617 27.6575 23.0383 27.6575 23.0767 27.6575C23.115 27.6575 23.1725 27.6575 23.2108 27.6575C23.23 27.6575 23.2492 27.6575 23.2492 27.6575C27.1208 27.5234 30.1683 24.38 30.1875 20.4892C30.1875 16.5217 26.9675 13.3017 23 13.3017Z" fill="#999999"/>
<path d="M36.4167 36.607C32.8943 40.0477 28.1847 42.1667 23 42.1667C17.8154 42.1667 13.1057 40.0477 9.58337 36.607C10.0583 34.6978 11.3446 32.9565 13.2245 31.6138C18.6268 27.7954 27.4129 27.7954 32.7756 31.6138C34.6753 32.9565 35.9418 34.6978 36.4167 36.607Z" fill="#999999"/>
</svg>
