<svg width="60" height="60" viewBox="0 0 60 60" fill="none" xmlns="http://www.w3.org/2000/svg">
<rect width="60" height="60" rx="30" fill="#00B286"/>
<path d="M23.5511 39V36.7159L29.6108 30.7756C30.1903 30.1903 30.6733 29.6705 31.0597 29.2159C31.446 28.7614 31.7358 28.321 31.929 27.8949C32.1222 27.4687 32.2188 27.0142 32.2188 26.5312C32.2188 25.9801 32.0938 25.5085 31.8438 25.1165C31.5938 24.7188 31.25 24.4119 30.8125 24.196C30.375 23.9801 29.8778 23.8722 29.321 23.8722C28.7472 23.8722 28.2443 23.9915 27.8125 24.2301C27.3807 24.4631 27.0455 24.7955 26.8068 25.2273C26.5739 25.6591 26.4574 26.1733 26.4574 26.7699H23.4489C23.4489 25.6619 23.7017 24.6989 24.2074 23.8807C24.7131 23.0625 25.4091 22.429 26.2955 21.9801C27.1875 21.5312 28.2102 21.3068 29.3636 21.3068C30.5341 21.3068 31.5625 21.5256 32.4489 21.9631C33.3352 22.4006 34.0227 23 34.5114 23.7614C35.0057 24.5227 35.2528 25.392 35.2528 26.3693C35.2528 27.0227 35.1278 27.6648 34.8778 28.2955C34.6278 28.9261 34.1875 29.625 33.5568 30.392C32.9318 31.1591 32.054 32.0881 30.9233 33.179L27.9148 36.2386V36.358H35.517V39H23.5511Z" fill="white"/>
</svg>
